<svg xmlns="http://www.w3.org/2000/svg" xmlns:xlink="http://www.w3.org/1999/xlink" width="270" height="270" viewBox="0 0 270 270">
  <defs>
    <linearGradient id="linear-gradient" x1="0.077" y1="0.15" x2="1.012" y2="1" gradientUnits="objectBoundingBox">
      <stop offset="0" stop-color="#2e3043"/>
      <stop offset="0.798" stop-color="#0a0b0e" stop-opacity="0.016"/>
      <stop offset="1" stop-color="#090a0d" stop-opacity="0"/>
    </linearGradient>
  </defs>
  <g id="组_2255" data-name="组 2255" transform="translate(-48 -763)">
    <rect id="矩形_2087" data-name="矩形 2087" width="270" height="270" rx="37" transform="translate(48 763)" fill="#5157af"/>
    <path id="路径_2407" data-name="路径 2407" d="M3229.333,859.333l66,52v131.333H3162.667L3103.333,990l16-26L3116,950.667l-30.667-31.333s-10-44,0-47.333S3132,838.667,3132,838.667s5.333-5.333,34.667-5.333S3229.333,859.333,3229.333,859.333Z" transform="translate(-2978 -10)" opacity="0.71" fill="url(#linear-gradient)"/>
    <g id="组_2254" data-name="组 2254" transform="translate(-1438.296 90.349)">
      <g id="组_2246" data-name="组 2246" transform="translate(1531 724.177)">
        <ellipse id="椭圆_143" data-name="椭圆 143" cx="90.296" cy="70.262" rx="90.296" ry="70.262" fill="#fff"/>
        <path id="路径_2405" data-name="路径 2405" d="M2224.323,704.109a97.824,97.824,0,0,1-12.6,28.594c-2.916,3.668-1.129,17.495,10.723,16.178,6.4-.941,28.782-3.01,51.732-25.96S2224.323,704.109,2224.323,704.109Z" transform="translate(-2188.204 -582.021)" fill="#fff"/>
      </g>
      <g id="组_2247" data-name="组 2247" transform="translate(1539.286 730.526)">
        <path id="路径_17" data-name="路径 17" d="M1339.308,445.222a5.079,5.079,0,0,1-3.991-8.22,61.838,61.838,0,0,0,12.46-29.836c-9.453-4.686-34.512-19.98-35.274-50.7-1.181-47.643,59.512-61.785,62.1-62.364a5.079,5.079,0,0,1,3.965,9.157c-.77.538-19.47,14.007-19.127,49.269,0,35.422,15.963,50.315,28.966,54.811-6.067-30.109-12.153-61.4,1.6-111.6a5.079,5.079,0,0,1,9.733-.217c.657,2.036,1.444,4.394,2.325,7.031,5.46,16.345,14.077,42.137,18.048,69.228,3.179-22.835,2.5-47.161-8.065-69.316a5.079,5.079,0,0,1,5.42-7.2,66.9,66.9,0,0,1,26.743,10.715,5.078,5.078,0,0,1,1.044,1.042c.97,1.3,9.472,13.633,9.472,45.549,0,15.824-6.2,31.051-10.3,41.127l-.3.749c7.825-5.329,19.009-16.226,22.093-30.842,2.484-11.773-.768-23.942-9.669-36.168a5.079,5.079,0,1,1,8.213-5.978c10.665,14.651,14.5,29.537,11.4,44.244-3.912,18.535-18.239,32.617-29.32,39.044-3.8,2.474-9.306,6.044-13.452,2.616-4.1-3.395-2.066-8.4,1.635-17.494,3.8-9.343,9.551-23.462,9.551-37.3,0-24.822-5.6-36.274-7.123-38.921a57.387,57.387,0,0,0-12.219-5.931c12.8,35.675,4.939,74.33-3.708,104.745a5.079,5.079,0,0,1-9.943-1.858c3.012-32.482-7.81-70.142-15.861-94.911-7.633,38.584-2.327,64.91,2.825,90.472l1.35,6.747a5.079,5.079,0,0,1-5.405,6.044c-16.787-1.4-45.2-16.955-45.2-66.388-.189-19.479,4.914-33.336,10.423-42.583-16.1,7.156-37.659,21.4-37.043,46.22.754,30.406,32.009,42.959,32.324,43.082a5.079,5.079,0,0,1,3.231,4.807,69.007,69.007,0,0,1-7.477,27.471c8.866-3.478,12.832-7.353,12.886-7.406a5.079,5.079,0,0,1,7.273,7.092c-.379.392-9.527,9.653-30.591,13.866A5.081,5.081,0,0,1,1339.308,445.222Z" transform="translate(-1312.487 -292)" fill="#5157af"/>
        <path id="直线_6" data-name="直线 6" d="M17.242,1.158H-3.921A5.079,5.079,0,0,1-9-3.921,5.079,5.079,0,0,1-3.921-9H17.242a5.079,5.079,0,0,1,5.079,5.079A5.079,5.079,0,0,1,17.242,1.158Z" transform="translate(10.426 67.411)" fill="#5157af"/>
      </g>
    </g>
  </g>
</svg>
